<svg width="56" height="56" viewBox="0 0 56 56" fill="none" xmlns="http://www.w3.org/2000/svg">
<path d="M28 56C43.464 56 56 43.464 56 28C56 12.536 43.464 0 28 0C12.536 0 0 12.536 0 28C0 43.464 12.536 56 28 56Z" fill="#0AC18E"/>
<path d="M36.734 18.5978C35.3269 15.4069 32.0934 14.7247 28.135 15.3856L26.8629 10.4536L23.8639 11.2282L25.1147 16.146C24.3258 16.345 23.5157 16.5155 22.7126 16.743L21.4619 11.8536L18.4629 12.6282L19.735 17.5602C19.0883 17.745 13.6802 19.1308 13.6802 19.1308L14.5045 22.343C14.5045 22.343 16.7076 21.7247 16.6863 21.7744C17.9086 21.4546 18.4842 22.0658 18.7543 22.6414L22.2507 36.1582C22.2934 36.549 22.2223 37.2171 21.3837 37.4445C21.4335 37.4729 19.202 38.0059 19.202 38.0059L19.5289 41.7511C19.5289 41.7511 24.8873 40.3795 25.5908 40.2018L26.8771 45.1907L29.8761 44.4161L28.5898 39.3917C29.4142 39.1998 30.2172 39.0008 30.9989 38.7947L32.2781 43.7907L35.2771 43.016L33.9908 38.0343C38.6101 36.9115 41.872 33.9978 41.204 29.5419C40.7776 26.8556 37.8426 24.6526 35.405 24.4039C36.9045 23.0749 37.6649 21.1348 36.734 18.5978ZM35.2913 30.3592C35.8883 34.7724 29.7553 35.3125 27.7299 35.8455L25.9675 29.2435C28 28.7105 34.2822 26.4719 35.2913 30.3592ZM31.5959 21.3694C32.2284 25.2922 26.9837 25.747 25.2923 26.1805L23.6863 20.1897C25.3847 19.7704 30.3096 17.7379 31.5959 21.3694Z" fill="white"/>
</svg>
