<svg width="56" height="56" viewBox="0 0 56 56" fill="none" xmlns="http://www.w3.org/2000/svg">
<g id="bitcoin">
<g id="Group 2">
<mask id="mask0" style="mask-type:alpha" maskUnits="userSpaceOnUse" x="0" y="0" width="56" height="56">
<rect id="Rectangle" width="56" height="56" fill="white"/>
</mask>
<g mask="url(#mask0)">
<g id="Group">
<path id="Path" d="M28 56C43.4639 56 56 43.4639 56 28C56 12.536 43.4639 0 28 0C12.536 0 0 12.536 0 28C0 43.4639 12.536 56 28 56Z" fill="#FAB915"/>
<mask id="mask1" style="mask-type:alpha" maskUnits="userSpaceOnUse" x="0" y="0" width="56" height="56">
<path id="Path_2" d="M28 56C43.4639 56 56 43.4639 56 28C56 12.536 43.4639 0 28 0C12.536 0 0 12.536 0 28C0 43.4639 12.536 56 28 56Z" fill="white"/>
</mask>
<g mask="url(#mask1)">
<path id="Path 2" fill-rule="evenodd" clip-rule="evenodd" d="M0 56V0H56L0 56Z" fill="#FFC940"/>
</g>
</g>
<path id="Oval" fill-rule="evenodd" clip-rule="evenodd" d="M54 28C54 42.3594 42.3594 54 28 54C13.6406 54 2 42.3594 2 28C2 13.6406 13.6406 2 28 2C42.3594 2 54 13.6406 54 28ZM4 28C4 41.2548 14.7452 52 28 52C41.2548 52 52 41.2548 52 28C52 14.7452 41.2548 4 28 4C14.7452 4 4 14.7452 4 28Z" fill="#DE9F00"/>
<path id="Shape" fill-rule="evenodd" clip-rule="evenodd" d="M37.3473 22.0022C36.9909 18.6667 34.0942 17.5773 30.4523 17.2984L30.4033 12.6685L27.5843 12.701L27.6294 17.2074C26.8916 17.216 26.126 17.24 25.3805 17.2649L25.3315 12.726L22.5126 12.7547L22.5577 17.3885L22.5209 17.3895C21.9268 17.4054 21.3375 17.4213 20.7591 17.4297L16.8756 17.4546L16.912 20.4701C16.912 20.4701 18.997 20.4039 18.9606 20.4452C20.1037 20.4288 20.4851 21.0929 20.5991 21.662L20.6528 26.9389H20.6528C20.7352 26.9389 20.8367 26.9389 20.9517 26.9512C20.853 26.9598 20.7553 26.9598 20.6528 26.9598L20.7352 34.3466C20.6863 34.7106 20.4851 35.2809 19.6821 35.2972C19.7233 35.322 17.6335 35.3134 17.6335 35.3134L17.1094 38.6891L20.7802 38.6566C21.4605 38.648 22.1408 38.648 22.7962 38.648L22.8499 43.3316L25.6651 43.3028L25.6161 38.6652C26.3866 38.6689 27.1407 38.6689 27.8698 38.6652L27.9188 43.2703L30.7415 43.2415L30.6841 38.5751C35.4243 38.2397 38.7311 37.0103 39.0914 32.5528C39.3864 28.9722 37.6818 27.3949 34.9902 26.7721C36.6104 25.9194 37.6137 24.4359 37.3473 22.0022ZM32.1078 23.3216C32.1379 26.2425 27.9287 26.2177 26.003 26.2064C25.8302 26.2053 25.6757 26.2044 25.5443 26.2058L25.483 20.5764C25.6452 20.5748 25.8425 20.5675 26.0663 20.5592C28.0417 20.4861 32.0745 20.3368 32.1078 23.3216ZM25.5768 29.0489L25.6382 35.2521C25.7935 35.2504 25.9758 35.251 26.1797 35.2516C28.4865 35.2591 33.5543 35.2755 33.5165 32.0603C33.4725 28.7694 28.6113 28.9441 26.2516 29.0289C25.9936 29.0382 25.7655 29.0464 25.5768 29.0489Z" fill="white"/>
</g>
</g>
</g>
</svg>
