<svg width="56" height="56" viewBox="0 0 56 56" fill="none" xmlns="http://www.w3.org/2000/svg">
<g id="Dollar">
<g id="Dollar_2">
<path id="Path" d="M28 56C43.4639 56 56 43.4639 56 28C56 12.536 43.4639 0 28 0C12.536 0 0 12.536 0 28C0 43.4639 12.536 56 28 56Z" fill="#6FA54F"/>
<mask id="mask0" style="mask-type:alpha" maskUnits="userSpaceOnUse" x="0" y="0" width="56" height="56">
<path id="Path_2" d="M28 56C43.4639 56 56 43.4639 56 28C56 12.536 43.4639 0 28 0C12.536 0 0 12.536 0 28C0 43.4639 12.536 56 28 56Z" fill="white"/>
</mask>
<g mask="url(#mask0)">
<path id="Path 2" fill-rule="evenodd" clip-rule="evenodd" d="M0 56V0H56L0 56Z" fill="#85BB65"/>
<path id="Oval" fill-rule="evenodd" clip-rule="evenodd" d="M54 28C54 42.3594 42.3594 54 28 54C13.6406 54 2 42.3594 2 28C2 13.6406 13.6406 2 28 2C42.3594 2 54 13.6406 54 28ZM4 28C4 41.2548 14.7452 52 28 52C41.2548 52 52 41.2548 52 28C52 14.7452 41.2548 4 28 4C14.7452 4 4 14.7452 4 28Z" fill="white"/>
<path id="Path_3" d="M35.7791 31.3428C35.6312 30.8398 35.4501 30.4026 35.2397 30.0317C35.029 29.6606 34.7252 29.2974 34.3303 28.9424C33.9364 28.5874 33.5814 28.3027 33.2674 28.0855C32.9531 27.868 32.5217 27.6255 31.972 27.357C31.4236 27.0884 30.9887 26.8879 30.6688 26.7571C30.3489 26.6263 29.8859 26.4454 29.2792 26.2165C28.7419 26.0105 28.3412 25.8534 28.0784 25.7453C27.8156 25.6373 27.4694 25.4825 27.0403 25.2821C26.6113 25.0818 26.2914 24.9054 26.0798 24.7506C25.8682 24.5958 25.6428 24.4081 25.4026 24.1849C25.1626 23.9618 24.994 23.7251 24.8962 23.4736C24.7982 23.2221 24.7505 22.9478 24.7505 22.6507C24.7505 21.8734 25.0929 21.2383 25.7793 20.7477C26.4656 20.2572 27.3511 20.0102 28.4381 20.0102C28.9184 20.0102 29.4077 20.0762 29.9041 20.2071C30.4002 20.338 30.8271 20.4871 31.181 20.6533C31.5362 20.8194 31.8696 21.0015 32.1848 21.2019C32.5 21.4022 32.7221 21.5535 32.8541 21.656C32.9861 21.7595 33.0692 21.8278 33.1023 21.862C33.2513 21.9758 33.4049 22.0168 33.5653 21.9815C33.7374 21.9701 33.8682 21.8779 33.9604 21.7072L35.35 19.2033C35.4867 18.9745 35.4583 18.7571 35.2646 18.5522C35.1964 18.484 35.1112 18.4043 35.0064 18.3121C34.904 18.2199 34.6809 18.0549 34.3371 17.8147C33.9935 17.5746 33.6315 17.3606 33.249 17.1717C32.8655 16.9827 32.368 16.7915 31.7569 16.5969C31.1458 16.4023 30.514 16.2714 29.8619 16.202V13.1836C29.8619 13.0243 29.8107 12.8922 29.7083 12.7887C29.6058 12.6851 29.4738 12.635 29.3132 12.635H26.9984C26.8492 12.635 26.7219 12.6896 26.6125 12.7978C26.5033 12.9059 26.4497 13.0345 26.4497 13.1836V16.2703C24.6548 16.6128 23.1969 17.3788 22.077 18.5682C20.957 19.7575 20.3959 21.1404 20.3959 22.7179C20.3959 23.1868 20.4449 23.6329 20.5416 24.0552C20.6384 24.4775 20.759 24.8588 20.9013 25.1957C21.0435 25.5326 21.2473 25.8648 21.5102 26.1905C21.7731 26.5159 22.0223 26.7969 22.2557 27.0304C22.4901 27.2648 22.7963 27.5072 23.173 27.7586C23.5497 28.0103 23.8731 28.2128 24.1415 28.3676C24.4101 28.5213 24.7675 28.6989 25.2138 28.8991C25.6598 29.0996 26.0116 29.2509 26.2688 29.3533C26.5261 29.4557 26.8776 29.5992 27.3239 29.7812C27.9408 30.0215 28.3983 30.2068 28.6953 30.339C28.9924 30.471 29.3702 30.6531 29.8277 30.8875C30.2854 31.1219 30.6188 31.3359 30.8304 31.5305C31.0422 31.7251 31.2334 31.9654 31.4052 32.251C31.5772 32.5367 31.6624 32.8393 31.6624 33.1603C31.6624 34.0641 31.3106 34.7606 30.6074 35.2523C29.9041 35.744 29.089 35.9898 28.1639 35.9898C27.7415 35.9898 27.3181 35.9442 26.8948 35.8532C25.4084 35.555 24.0197 34.8414 22.728 33.7091L22.6938 33.6748C22.5903 33.5496 22.4537 33.4972 22.2818 33.5212C22.0986 33.544 21.9677 33.6122 21.8869 33.7272L20.1205 36.0422C19.9486 36.2708 19.9612 36.5055 20.1546 36.7455C20.2116 36.8137 20.3117 36.9173 20.4551 37.054C20.5985 37.1906 20.8637 37.4057 21.253 37.6981C21.6411 37.9896 22.0645 38.2638 22.522 38.5211C22.9795 38.7783 23.56 39.0321 24.2623 39.2835C24.9656 39.5352 25.694 39.7117 26.4486 39.815V42.8163C26.4486 42.9655 26.5033 43.094 26.6113 43.2023C26.7195 43.3103 26.8492 43.365 26.9973 43.365H29.3123C29.4727 43.365 29.6035 43.3138 29.7071 43.2114C29.8107 43.1089 29.8608 42.9769 29.8608 42.8163V39.815C31.6794 39.518 33.1568 38.7374 34.2938 37.4739C35.4308 36.2105 36 34.7048 36 32.9555C35.9988 32.3842 35.9248 31.8469 35.7746 31.3438L35.7791 31.3428Z" fill="white"/>
</g>
</g>
</g>
</svg>
