<svg width="56" height="56" viewBox="0 0 56 56" fill="none" xmlns="http://www.w3.org/2000/svg">
<g id="EUR ico">
<g id="Group">
<g id="Group 20">
<path id="Path" d="M28 56C43.4639 56 56 43.4639 56 28C56 12.536 43.4639 0 28 0C12.536 0 0 12.536 0 28C0 43.4639 12.536 56 28 56Z" fill="#2E3198"/>
<mask id="mask0" style="mask-type:alpha" maskUnits="userSpaceOnUse" x="0" y="0" width="56" height="56">
<path id="Path_2" d="M28 56C43.4639 56 56 43.4639 56 28C56 12.536 43.4639 0 28 0C12.536 0 0 12.536 0 28C0 43.4639 12.536 56 28 56Z" fill="white"/>
</mask>
<g mask="url(#mask0)">
<path id="Path 2" fill-rule="evenodd" clip-rule="evenodd" d="M0 56V0H56L0 56Z" fill="#4548B2"/>
<path id="Oval" fill-rule="evenodd" clip-rule="evenodd" d="M54 28C54 42.3594 42.3594 54 28 54C13.6406 54 2 42.3594 2 28C2 13.6406 13.6406 2 28 2C42.3594 2 54 13.6406 54 28ZM4 28C4 41.2548 14.7452 52 28 52C41.2548 52 52 41.2548 52 28C52 14.7452 41.2548 4 28 4C14.7452 4 4 14.7452 4 28Z" fill="white"/>
</g>
</g>
<path id="Path_3" d="M36.3452 35.5581V40.0961H19.6538V37.1306C21.5952 36.3271 23.7544 34.2405 23.7544 31.7539C23.7544 31.2407 23.7191 30.8014 23.6445 30.2892H20.057V26.5194H22.9842C22.8038 25.6051 22.6919 24.5406 22.6919 23.5558C22.6919 18.9422 26.0606 15.9041 30.9625 15.9041C32.9765 15.9041 34.4785 16.3415 35.2829 16.782L34.3666 20.9924C33.6741 20.5902 32.6468 20.3342 31.2951 20.3342C28.6945 20.3342 27.8922 22.0166 27.8922 23.7755C27.8922 24.7292 28 25.607 28.2188 26.5213H33.2357V30.2912H28.6966C28.7329 31.2075 28.6603 32.0462 28.3649 32.8899C28.0363 33.8072 27.4507 34.7213 26.5727 35.4894V35.562L36.3463 35.559L36.3452 35.5581Z" fill="white"/>
</g>
</g>
</svg>
