<svg width="56" height="56" viewBox="0 0 56 56" fill="none" xmlns="http://www.w3.org/2000/svg">
<g id="GBP ico">
<path id="Path" d="M28 56C43.4639 56 56 43.4639 56 28C56 12.536 43.4639 0 28 0C12.536 0 0 12.536 0 28C0 43.4639 12.536 56 28 56Z" fill="#021C6B"/>
<mask id="mask0" style="mask-type:alpha" maskUnits="userSpaceOnUse" x="0" y="0" width="56" height="56">
<path id="Path_2" d="M28 56C43.4639 56 56 43.4639 56 28C56 12.536 43.4639 0 28 0C12.536 0 0 12.536 0 28C0 43.4639 12.536 56 28 56Z" fill="white"/>
</mask>
<g mask="url(#mask0)">
<path id="Path 2" fill-rule="evenodd" clip-rule="evenodd" d="M0 56V0H56L0 56Z" fill="#253E8A"/>
<path id="Oval" fill-rule="evenodd" clip-rule="evenodd" d="M54 28C54 42.3594 42.3594 54 28 54C13.6406 54 2 42.3594 2 28C2 13.6406 13.6406 2 28 2C42.3594 2 54 13.6406 54 28ZM4 28C4 41.2548 14.7452 52 28 52C41.2548 52 52 41.2548 52 28C52 14.7452 41.2548 4 28 4C14.7452 4 4 14.7452 4 28Z" fill="white"/>
<path id="Path_3" d="M16.7926 23.0378H19.1762C19.5674 21.3842 20.1339 19.9702 20.8759 18.7944C21.6179 17.6186 22.4903 16.6632 23.4942 15.9272C24.4958 15.1911 25.591 14.6494 26.7764 14.2998C27.9615 13.9501 29.1919 13.7759 30.4685 13.7759C31.8231 13.7759 33.0286 13.879 34.0824 14.0829C35.136 14.2867 36.0166 14.5309 36.7207 14.8118L35.3529 18.7766C34.7804 18.5419 34.1155 18.3665 33.3606 18.2491C32.6054 18.1318 31.719 18.0737 30.7032 18.0737C29.1396 18.0737 27.7921 18.4708 26.659 19.2661C25.5257 20.0614 24.6854 21.3179 24.1378 23.0365H34.259L33.2432 26.7487H23.5132C23.4871 26.9575 23.4741 27.166 23.4741 27.3746C23.4741 27.5833 23.4741 27.7919 23.4741 27.9994V29.0151H32.4609L31.4452 32.7274H24.0596C24.5799 34.4213 25.4144 35.7108 26.5605 36.5963C27.7055 37.4815 29.2168 37.925 31.0931 37.925C32.1871 37.925 33.1304 37.8076 33.926 37.5729C34.7213 37.3382 35.4299 37.0395 36.0558 36.6743L37.1109 40.5729C36.7197 40.8548 36.2513 41.1038 35.705 41.322C35.1586 41.5399 34.5849 41.7106 33.9852 41.8399C33.3855 41.9679 32.7751 42.0626 32.1492 42.1279C31.5244 42.1906 30.9247 42.2239 30.3522 42.2239C27.4863 42.2239 25.0634 41.4629 23.0841 39.9374C21.1047 38.4121 19.7878 36.0106 19.1383 32.7286H15.5433L16.7926 29.0162H18.708V28.0004C18.708 27.7931 18.708 27.5844 18.708 27.3758C18.708 27.1673 18.7211 26.9585 18.7471 26.75H15.5433L16.7926 23.0378Z" fill="white"/>
</g>
</g>
</svg>
