<svg width="56" height="56" viewBox="0 0 56 56" fill="none" xmlns="http://www.w3.org/2000/svg">
<g id="ic_coin_mhc">
<g id="Group 20">
<path id="Path" d="M28 56C43.4639 56 56 43.4639 56 28C56 12.536 43.4639 0 28 0C12.536 0 0 12.536 0 28C0 43.4639 12.536 56 28 56Z" fill="#0A2342"/>
<mask id="mask0" style="mask-type:alpha" maskUnits="userSpaceOnUse" x="0" y="0" width="56" height="56">
<path id="Path_2" d="M28 56C43.4639 56 56 43.4639 56 28C56 12.536 43.4639 0 28 0C12.536 0 0 12.536 0 28C0 43.4639 12.536 56 28 56Z" fill="white"/>
</mask>
<g mask="url(#mask0)">
<path id="Path 2" fill-rule="evenodd" clip-rule="evenodd" d="M0 56V0H56L0 56Z" fill="#1B4073"/>
<path id="Oval" fill-rule="evenodd" clip-rule="evenodd" d="M54 28C54 42.3594 42.3594 54 28 54C13.6406 54 2 42.3594 2 28C2 13.6406 13.6406 2 28 2C42.3594 2 54 13.6406 54 28ZM4 28C4 41.2548 14.7452 52 28 52C41.2548 52 52 41.2548 52 28C52 14.7452 41.2548 4 28 4C14.7452 4 4 14.7452 4 28Z" fill="white"/>
</g>
</g>
<path id="Path_3" d="M17.6425 39.4193H21.4918C21.9299 39.4193 22.309 39.1143 22.4025 38.6862L24.1614 30.6353H30.8788L29.2067 38.2881C29.0797 38.8693 29.5225 39.4193 30.1175 39.4193H33.9667C34.4048 39.4193 34.784 39.1143 34.8775 38.6862L35.6768 35.0273H40.6841C41.1222 35.0273 41.5012 34.722 41.5946 34.2941L42.147 31.7662C42.274 31.185 41.8314 30.6353 41.2362 30.6353H36.6365L37.596 25.3646H42.6033C43.0414 25.3646 43.4203 25.0596 43.514 24.6315L44.0663 22.1038C44.1931 21.5225 43.7506 20.9726 43.1556 20.9726H38.5557L39.2681 17.7117C39.3951 17.1304 38.9526 16.5806 38.3574 16.5806H34.5081C34.07 16.5806 33.691 16.8857 33.5973 17.3138L31.8385 25.3646H25.1211L26.7932 17.7117C26.9203 17.1304 26.4775 16.5806 25.8825 16.5806H22.0332C21.5951 16.5806 21.216 16.8857 21.1225 17.3138L20.3231 20.9726H15.3159C14.8778 20.9726 14.4987 21.2778 14.4052 21.7058L13.8529 24.2334C13.7259 24.8149 14.1687 25.3646 14.7637 25.3646H19.3635L18.4038 30.6353H13.3967C12.9585 30.6353 12.5795 30.9403 12.486 31.3684L11.9337 33.8961C11.8067 34.4773 12.2494 35.0273 12.8444 35.0273H17.4442L16.7318 38.2881C16.6048 38.8693 17.0475 39.4193 17.6425 39.4193Z" fill="white"/>
</g>
</svg>
