<svg width="56" height="56" viewBox="0 0 56 56" fill="none" xmlns="http://www.w3.org/2000/svg">
<g id="ic_coin_xlm">
<g id="Group 20">
<path id="Path" d="M28 56C43.4639 56 56 43.4639 56 28C56 12.536 43.4639 0 28 0C12.536 0 0 12.536 0 28C0 43.4639 12.536 56 28 56Z" fill="#CED7E3"/>
<mask id="mask0" style="mask-type:alpha" maskUnits="userSpaceOnUse" x="0" y="0" width="56" height="56">
<path id="Path_2" d="M28 56C43.4639 56 56 43.4639 56 28C56 12.536 43.4639 0 28 0C12.536 0 0 12.536 0 28C0 43.4639 12.536 56 28 56Z" fill="white"/>
</mask>
<g mask="url(#mask0)">
<path id="Path 2" fill-rule="evenodd" clip-rule="evenodd" d="M0 56V0H56L0 56Z" fill="#E1E8F2"/>
<path id="Oval" fill-rule="evenodd" clip-rule="evenodd" d="M54 28C54 42.3594 42.3594 54 28 54C13.6406 54 2 42.3594 2 28C2 13.6406 13.6406 2 28 2C42.3594 2 54 13.6406 54 28ZM4 28C4 41.2548 14.7452 52 28 52C41.2548 52 52 41.2548 52 28C52 14.7452 41.2548 4 28 4C14.7452 4 4 14.7452 4 28Z" fill="black"/>
</g>
</g>
<path id="Path_3" d="M40.5601 17.0689L36.3456 19.216L15.9952 29.5816C15.9264 29.0568 15.8918 28.5281 15.8916 27.9986C15.8943 25.8865 16.4489 23.8119 17.5002 21.98C18.5515 20.1482 20.0631 18.6228 21.8854 17.555C23.7076 16.4871 25.7773 15.9139 27.8892 15.892C30.0011 15.8701 32.0822 16.4003 33.9262 17.4302L36.3384 16.2011L36.6982 16.0175C34.4885 14.4137 31.8782 13.452 29.1562 13.2388C26.4341 13.0256 23.706 13.5692 21.2735 14.8095C18.841 16.0498 16.7989 17.9385 15.3727 20.2669C13.9465 22.5953 13.1918 25.2726 13.1921 28.0031C13.1921 28.3801 13.2064 28.7558 13.235 29.1298C13.2751 29.6597 13.1576 30.1896 12.8973 30.6528C12.637 31.116 12.2455 31.4919 11.772 31.7331L10.5 32.3818V35.407L14.2449 33.4983L15.4577 32.8793L16.6527 32.2707L38.1064 21.3395L40.5172 20.1119L45.5 17.5724V14.5486L40.5601 17.0689Z" fill="black"/>
<path id="Path_4" d="M45.5 20.5991L17.8714 34.6667L15.4606 35.8971L10.5 38.4248V41.4472L15.4266 38.9372L19.6409 36.7901L40.0122 26.4098C40.0811 26.938 40.1156 27.4703 40.1158 28.003C40.1144 30.1177 39.5603 32.195 38.5079 34.029C37.4556 35.863 35.9417 37.39 34.1168 38.4582C32.2919 39.5264 30.2195 40.0987 28.105 40.1183C25.9908 40.1379 23.9078 39.6041 22.0635 38.5699L21.9154 38.6486L19.3004 39.9811C21.5096 41.5851 24.1192 42.5471 26.8408 42.7608C29.5626 42.9746 32.2903 42.4316 34.7228 41.1921C37.1553 39.9527 39.1979 38.0648 40.6247 35.7373C42.0513 33.4098 42.8071 30.7332 42.808 28.003C42.808 27.6224 42.7931 27.2418 42.7649 26.8659C42.725 26.3363 42.8423 25.8066 43.1023 25.3434C43.3624 24.8803 43.7535 24.5041 44.2265 24.2626L45.5 23.614V20.5991Z" fill="black"/>
</g>
</svg>
