<svg width="56" height="56" viewBox="0 0 56 56" fill="none" xmlns="http://www.w3.org/2000/svg">
<g id="ic_coin_xrp">
<g id="Group">
<g id="Group 20">
<path id="Path" d="M28 56C43.4639 56 56 43.4639 56 28C56 12.536 43.4639 0 28 0C12.536 0 0 12.536 0 28C0 43.4639 12.536 56 28 56Z" fill="#272727"/>
<mask id="mask0" style="mask-type:alpha" maskUnits="userSpaceOnUse" x="0" y="0" width="56" height="56">
<path id="Path_2" d="M28 56C43.4639 56 56 43.4639 56 28C56 12.536 43.4639 0 28 0C12.536 0 0 12.536 0 28C0 43.4639 12.536 56 28 56Z" fill="white"/>
</mask>
<g mask="url(#mask0)">
<path id="Path 2" fill-rule="evenodd" clip-rule="evenodd" d="M0 56V0H56L0 56Z" fill="#404040"/>
<path id="Oval" fill-rule="evenodd" clip-rule="evenodd" d="M54 28C54 42.3594 42.3594 54 28 54C13.6406 54 2 42.3594 2 28C2 13.6406 13.6406 2 28 2C42.3594 2 54 13.6406 54 28ZM4 28C4 41.2548 14.7452 52 28 52C41.2548 52 52 41.2548 52 28C52 14.7452 41.2548 4 28 4C14.7452 4 4 14.7452 4 28Z" fill="white"/>
</g>
</g>
<path id="Path_3" d="M39.5509 13.8235H44.2757L34.4458 24.0192C30.8877 27.7099 25.1186 27.7099 21.5603 24.0192L11.7305 13.8235H16.4552L23.9227 21.5689C26.1763 23.9063 29.8298 23.9063 32.0836 21.5689L39.5509 13.8235Z" fill="white"/>
<path id="Path_4" d="M16.3914 42.1763H11.6667L21.5572 31.9178C25.1156 28.2269 30.8845 28.2269 34.4428 31.9178L44.3334 42.1763H39.6086L32.0803 34.368C29.8268 32.0305 26.173 32.0305 23.9195 34.368L16.3914 42.1763Z" fill="white"/>
</g>
</g>
</svg>
