<svg width="56" height="56" viewBox="0 0 56 56" fill="none" xmlns="http://www.w3.org/2000/svg">
<g id="ic_coin_ong">
<g id="Group 20">
<path id="Path" d="M28 56C43.4639 56 56 43.4639 56 28C56 12.536 43.4639 0 28 0C12.536 0 0 12.536 0 28C0 43.4639 12.536 56 28 56Z" fill="#DCE9FF"/>
<mask id="mask0" style="mask-type:alpha" maskUnits="userSpaceOnUse" x="0" y="0" width="56" height="56">
<path id="Path_2" d="M28 56C43.4639 56 56 43.4639 56 28C56 12.536 43.4639 0 28 0C12.536 0 0 12.536 0 28C0 43.4639 12.536 56 28 56Z" fill="white"/>
</mask>
<g mask="url(#mask0)">
<path id="Path 2" fill-rule="evenodd" clip-rule="evenodd" d="M0 56V0H56L0 56Z" fill="#EDF2FA"/>
<path id="Oval" fill-rule="evenodd" clip-rule="evenodd" d="M54 28C54 42.3594 42.3594 54 28 54C13.6406 54 2 42.3594 2 28C2 13.6406 13.6406 2 28 2C42.3594 2 54 13.6406 54 28ZM4 28C4 41.2548 14.7452 52 28 52C41.2548 52 52 41.2548 52 28C52 14.7452 41.2548 4 28 4C14.7452 4 4 14.7452 4 28Z" fill="#60A1F8"/>
</g>
</g>
<path id="Shape" fill-rule="evenodd" clip-rule="evenodd" d="M20.2206 15.502L39.7666 35.048V24.3242C39.767 22.0599 39.1139 19.8437 37.8857 17.9414C36.6577 16.0392 34.9066 14.5319 32.8428 13.6004C30.779 12.6689 28.4903 12.3529 26.2513 12.6902C24.0123 13.0275 21.9183 14.0038 20.2206 15.502ZM41.2369 24.3164V36.8222C41.2367 36.9675 41.1936 37.1095 41.1128 37.2302C41.0321 37.351 40.9172 37.4453 40.7829 37.5008C40.6486 37.5564 40.501 37.571 40.3584 37.5425C40.2159 37.5143 40.085 37.4443 39.9822 37.3418L36.322 33.6816L18.6463 16.0058C18.5086 15.868 18.4313 15.6812 18.4313 15.4863C18.4313 15.2915 18.5086 15.1047 18.6463 14.9668C20.4965 13.1166 22.8538 11.8563 25.42 11.3455C27.9863 10.8346 30.6465 11.096 33.0641 12.0966C35.482 13.0973 37.5487 14.7922 39.0034 16.9672C40.458 19.1422 41.2354 21.6997 41.2369 24.3164Z" fill="#60A1F8"/>
<path id="Shape_2" fill-rule="evenodd" clip-rule="evenodd" d="M15.2179 11.1491C15.3519 11.0934 15.4993 11.0786 15.6416 11.1065C15.7839 11.1344 15.9148 11.2038 16.0178 11.3059L22.6344 17.9245L22.6403 17.9284L37.3536 32.6437C37.4912 32.7815 37.5687 32.9684 37.5687 33.1633C37.5687 33.3581 37.4912 33.545 37.3536 33.6828C35.501 35.5356 33.14 36.7966 30.5698 37.3061C27.9998 37.8157 25.3361 37.5508 22.9167 36.5451C20.4973 35.5393 18.4309 33.838 16.9793 31.6566C15.5278 29.4754 14.7565 26.9123 14.7631 24.2921V11.8274C14.7631 11.5294 14.9415 11.2628 15.2179 11.1491ZM21.5895 18.9596L16.2335 13.6016V24.296C16.2273 26.5627 16.8763 28.783 18.1022 30.6897C19.3281 32.5963 21.0789 34.108 23.1438 35.0432C25.2087 35.9783 27.4997 36.2969 29.7413 35.9605C31.9831 35.6242 34.0798 34.6473 35.7794 33.1476L21.5934 18.9635L21.5875 18.9596H21.5895Z" fill="#60A1F8"/>
<path id="Shape_3" fill-rule="evenodd" clip-rule="evenodd" d="M14.9784 34.0966C14.8406 34.2346 14.7631 34.4215 14.7631 34.6165V39.0276C14.7631 39.2227 14.8406 39.4095 14.9784 39.5475C15.1163 39.6853 15.3033 39.7628 15.4983 39.7628C15.6933 39.7628 15.8802 39.6853 16.0181 39.5475C16.156 39.4095 16.2334 39.2227 16.2334 39.0276V34.6165C16.2334 34.4215 16.156 34.2346 16.0181 34.0966C15.8802 33.9588 15.6933 33.8813 15.4983 33.8813C15.3033 33.8813 15.1163 33.9588 14.9784 34.0966ZM39.7591 39.0276C39.7591 38.8325 39.8366 38.6457 39.9744 38.5077C40.1124 38.3699 40.2993 38.2924 40.4943 38.2924C40.6894 38.2924 40.8762 38.3699 41.0142 38.5077C41.1521 38.6457 41.2295 38.8325 41.2295 39.0276V42.7035C41.2295 42.8986 41.1521 43.0854 41.0142 43.2234C40.8762 43.3612 40.6894 43.4387 40.4943 43.4387C40.2993 43.4387 40.1124 43.3612 39.9744 43.2234C39.8366 43.0854 39.7591 42.8986 39.7591 42.7035V39.0276ZM27.2611 39.7628C27.2611 39.5677 27.3386 39.3809 27.4764 39.2429C27.6144 39.105 27.8012 39.0276 27.9963 39.0276C28.1914 39.0276 28.3782 39.105 28.5162 39.2429C28.654 39.3809 28.7315 39.5677 28.7315 39.7628V44.1738C28.7315 44.3689 28.654 44.5557 28.5162 44.6938C28.3782 44.8316 28.1914 44.909 27.9963 44.909C27.8012 44.909 27.6144 44.8316 27.4764 44.6938C27.3386 44.5557 27.2611 44.3689 27.2611 44.1738V39.7628Z" fill="#60A1F8"/>
</g>
</svg>
