<svg width="56" height="56" viewBox="0 0 56 56" fill="none" xmlns="http://www.w3.org/2000/svg">
<g id="ic_coin_ont">
<g id="Group 20">
<path id="Path" d="M28 56C43.4639 56 56 43.4639 56 28C56 12.536 43.4639 0 28 0C12.536 0 0 12.536 0 28C0 43.4639 12.536 56 28 56Z" fill="#DCE9FF"/>
<mask id="mask0" style="mask-type:alpha" maskUnits="userSpaceOnUse" x="0" y="0" width="56" height="56">
<path id="Path_2" d="M28 56C43.4639 56 56 43.4639 56 28C56 12.536 43.4639 0 28 0C12.536 0 0 12.536 0 28C0 43.4639 12.536 56 28 56Z" fill="white"/>
</mask>
<g mask="url(#mask0)">
<path id="Path 2" fill-rule="evenodd" clip-rule="evenodd" d="M0 56V0H56L0 56Z" fill="#EDF2FA"/>
<path id="Oval" fill-rule="evenodd" clip-rule="evenodd" d="M54 28C54 42.3594 42.3594 54 28 54C13.6406 54 2 42.3594 2 28C2 13.6406 13.6406 2 28 2C42.3594 2 54 13.6406 54 28ZM4 28C4 41.2548 14.7452 52 28 52C41.2548 52 52 41.2548 52 28C52 14.7452 41.2548 4 28 4C14.7452 4 4 14.7452 4 28Z" fill="#60A1F8"/>
</g>
</g>
<path id="Path_3" d="M38.3754 39.0563C36.9235 40.5079 35.1998 41.6595 33.3028 42.4451C31.4059 43.2307 29.3728 43.635 27.3196 43.6348C23.173 43.6346 19.1964 41.9871 16.2644 39.0551C13.3325 36.1228 11.6855 32.146 11.6857 27.9993C11.6859 23.8528 13.3334 19.876 16.2656 16.9441L38.3754 39.0563Z" fill="#60A1F8"/>
<path id="Shape" fill-rule="evenodd" clip-rule="evenodd" d="M43.1236 22.0167C42.3378 20.1197 41.1858 18.3961 39.7336 16.9444C38.2819 15.4925 36.5585 14.3409 34.6617 13.5551C32.7649 12.7694 30.732 12.365 28.6788 12.365C26.6256 12.365 24.5926 12.7694 22.6958 13.5551C20.7991 14.3409 19.0756 15.4925 17.6239 16.9444L39.7336 39.0565C41.1858 37.6046 42.3378 35.8812 43.1236 33.9841C43.9097 32.0871 44.3143 30.0539 44.3143 28.0005C44.3143 25.947 43.9097 23.9137 43.1236 22.0167ZM11.6857 12.3672L19.162 19.8435L11.6857 28.0005V12.3672Z" fill="#60A1F8"/>
<path id="Path_4" d="M39.7311 16.9444C41.1832 18.3961 42.3352 20.1197 43.121 22.0167C43.9071 23.9137 44.3115 25.947 44.3115 28.0005C44.3115 30.0539 43.9071 32.0871 43.121 33.9841C42.3352 35.8812 41.1832 37.6046 39.7311 39.0565L17.6213 16.9444C19.073 15.4925 20.7964 14.3409 22.6932 13.5551C24.5901 12.7694 26.623 12.365 28.6762 12.365C30.7292 12.365 32.7623 12.7694 34.6591 13.5551C36.5559 14.3409 38.2794 15.4925 39.7311 16.9444Z" fill="#60A1F8"/>
<path id="Path_5" d="M44.3108 43.6337V28.0005L35.4734 34.7986L44.3108 43.6337Z" fill="#60A1F8"/>
</g>
</svg>
