<svg width="56" height="56" viewBox="0 0 56 56" fill="none" xmlns="http://www.w3.org/2000/svg">
<g id="ic_coin_btt">
<circle id="Oval" cx="28" cy="28" r="25" stroke="white" stroke-width="2"/>
<g id="Group 20">
<path id="Path" d="M28 56C43.4639 56 56 43.4639 56 28C56 12.536 43.4639 0 28 0C12.536 0 0 12.536 0 28C0 43.4639 12.536 56 28 56Z" fill="black"/>
<path id="Oval_2" fill-rule="evenodd" clip-rule="evenodd" d="M54 28C54 42.3594 42.3594 54 28 54C13.6406 54 2 42.3594 2 28C2 13.6406 13.6406 2 28 2C42.3594 2 54 13.6406 54 28ZM4 28C4 41.2548 14.7452 52 28 52C41.2548 52 52 41.2548 52 28C52 14.7452 41.2548 4 28 4C14.7452 4 4 14.7452 4 28Z" fill="white"/>
<path id="Path_2" d="M28.584 50.6817C28.6629 50.6803 28.7413 50.6782 28.8197 50.6759C28.8568 50.6747 28.8939 50.6735 28.931 50.6724C29.0119 50.6696 29.0931 50.6663 29.1741 50.6626C29.204 50.6612 29.2343 50.66 29.2642 50.6586C29.3755 50.6532 29.4865 50.6472 29.5974 50.6399C29.6039 50.6397 29.6109 50.639 29.6174 50.6385C29.7213 50.632 29.8246 50.6245 29.9278 50.6161C29.9579 50.6138 29.9877 50.6112 30.0176 50.6087C30.1004 50.6017 30.1828 50.5947 30.2654 50.5868C30.2962 50.584 30.3268 50.5811 30.3576 50.5779C30.4493 50.569 30.5407 50.5594 30.6317 50.5494C30.6497 50.5473 30.6674 50.5457 30.6854 50.5436C30.7988 50.5308 30.9122 50.5172 31.0254 50.503C31.0286 50.5025 31.0317 50.502 31.0345 50.5018C31.1409 50.4878 31.2473 50.4736 31.3534 50.4584C31.3758 50.4552 31.3985 50.4516 31.4209 50.4486C31.5114 50.4353 31.6017 50.4215 31.692 50.4071C31.7135 50.4038 31.7347 50.4003 31.7564 50.3968C31.864 50.3793 31.9713 50.3614 32.0784 50.3424C32.0786 50.3424 32.0789 50.3424 32.0791 50.3422C32.3043 50.3023 32.5283 50.2591 32.7509 50.2125C32.767 50.209 32.7835 50.2057 32.7996 50.2022C32.8965 50.1817 32.9931 50.1609 33.0897 50.139C33.1032 50.1362 33.1163 50.1329 33.1298 50.1301C33.3529 50.0795 33.5748 50.0253 33.7953 49.9682C31.0429 50.0587 28.8024 49.673 27.3795 49.3687C24.213 48.6918 21.1901 47.4521 18.6404 45.3118C14.3857 41.7402 12.2077 36.6308 12.262 31.5533C12.3028 27.7523 13.5944 23.969 16.2028 20.8619C19.4691 16.9709 24.136 14.93 28.91 14.8354C29.13 14.8311 29.35 14.8311 29.5703 14.8351V11.0264C29.3253 11.0229 29.0801 11.0235 28.8344 11.0284C27.3816 11.0571 25.9298 11.2353 24.5203 11.5582C23.0953 11.8841 21.7049 12.3599 20.3872 12.9716C19.0422 13.5962 17.7636 14.3672 16.5874 15.2632C15.3795 16.1833 14.2687 17.2432 13.2862 18.414C12.3692 19.5063 11.5649 20.6938 10.896 21.9431C10.2435 23.1616 9.71228 24.4525 9.31732 25.7799C8.93012 27.081 8.6697 28.4296 8.54349 29.7886C8.50413 30.2109 8.47797 30.6353 8.46416 31.0609C8.45898 31.2236 8.45555 31.3864 8.4541 31.5495C8.45468 31.6317 8.45583 31.7143 8.45725 31.7966C8.486 33.2496 8.66424 34.7012 8.98703 36.1108C9.31302 37.5357 9.79133 38.925 10.4005 40.2438C11.1266 41.8157 12.427 44.1432 14.3343 45.9194C14.336 45.9208 14.3377 45.9226 14.3392 45.924C18.1442 48.9074 22.9387 50.6864 28.1488 50.6864C28.2601 50.6864 28.3712 50.6852 28.482 50.6836C28.5161 50.6831 28.5502 50.6827 28.584 50.6817Z" fill="white"/>
<path id="Path_3" d="M34.8462 46.9831C33.5113 46.9595 31.8992 46.7586 30.6184 46.5257C24.6976 45.4498 19.61 41.849 17.7361 36.3804C15.4566 29.7281 18.9569 22.5571 25.5544 20.3639C26.8436 19.9353 28.1554 19.7283 29.4492 19.7228C31.1567 19.7154 32.8321 20.0586 34.3812 20.7042L35.9851 17.2887C35.5054 17.0846 35.0158 16.9026 34.5177 16.7439C32.8664 16.2176 31.1556 15.9546 29.4329 15.9621C27.7001 15.9698 25.9844 16.2518 24.3334 16.8009C22.2233 17.5025 20.318 18.6006 18.6709 20.0646C17.8812 20.7666 17.1569 21.5508 16.5181 22.3953C15.8875 23.2292 15.3347 24.1295 14.875 25.071C14.4166 26.0104 14.0469 26.999 13.7764 28.0093C13.5036 29.0283 13.3291 30.0788 13.2584 31.1311C13.1109 33.3172 13.4004 35.4881 14.1182 37.5832C14.8359 39.6776 15.993 41.5996 17.5578 43.2952C18.9644 44.8196 20.6066 45.9779 22.6018 47.0262C24.6787 48.1173 27.2276 48.7044 29.8916 49.0726C31.6089 49.3101 33.904 49.3598 35.2655 49.354C36.4455 48.9172 36.9427 48.7331 37.5788 48.461C38.1341 48.206 38.6775 47.9295 39.207 47.632C39.7511 47.3097 39.8463 47.2591 40.7561 46.6648C40.8366 46.6072 40.9171 46.5491 40.9966 46.49C37.9008 47.0433 37.0885 47.0227 34.8462 46.9831Z" fill="white"/>
<path id="Path_4" d="M41.9279 42.7037C41.0405 42.7642 39.7835 42.8353 38.3415 42.8353C35.7891 42.8353 32.6575 42.613 29.974 41.7186C25.8477 40.3431 21.9241 36.7927 21.9241 32.4436C21.9241 28.0943 25.4496 24.5686 29.799 24.5686C32.7541 24.5686 35.329 26.197 36.676 28.605L40.0941 26.9178C39.5553 25.914 38.8742 24.997 38.0597 24.1827C36.9882 23.111 35.7392 22.269 34.3473 21.6803C32.9046 21.07 31.3742 20.7607 29.7985 20.7607C28.223 20.7607 26.6926 21.07 25.2499 21.6803C23.8583 22.269 22.6093 23.1107 21.5374 24.1827C20.4658 25.2541 19.6238 26.5032 19.0351 27.895C18.4248 29.3379 18.1155 30.8681 18.1155 32.4438C18.1155 34.0296 18.4553 35.5929 19.1254 37.0902C19.7161 38.4099 20.5546 39.6566 21.6179 40.7953C23.4992 42.8104 26.039 44.4211 28.7695 45.3313C31.3819 46.2019 35.2506 46.5024 38.9809 46.2446C40.0187 46.1727 40.8041 46.0609 42.1246 45.7942C43.3967 44.7778 44.5557 43.6259 45.5793 42.3598C44.7029 42.4543 43.0556 42.6265 41.9279 42.7037Z" fill="white"/>
</g>
</g>
</svg>
