<svg width="56" height="56" viewBox="0 0 56 56" fill="none" xmlns="http://www.w3.org/2000/svg">
<g id="ic_coin_dash ">
<rect width="56" height="56" fill="white"/>
<g id="Group 2">
<g id="Group 20">
<path id="Path" d="M28 56C43.4639 56 56 43.4639 56 28C56 12.536 43.4639 0 28 0C12.536 0 0 12.536 0 28C0 43.4639 12.536 56 28 56Z" fill="#008CE3"/>
<mask id="mask0" style="mask-type:alpha" maskUnits="userSpaceOnUse" x="0" y="0" width="56" height="56">
<path id="Path_2" d="M28 56C43.4639 56 56 43.4639 56 28C56 12.536 43.4639 0 28 0C12.536 0 0 12.536 0 28C0 43.4639 12.536 56 28 56Z" fill="white"/>
</mask>
<g mask="url(#mask0)">
<path id="Path 2" fill-rule="evenodd" clip-rule="evenodd" d="M0 56V0H56L0 56Z" fill="#009DFF"/>
<path id="Oval" fill-rule="evenodd" clip-rule="evenodd" d="M54 28C54 42.3594 42.3594 54 28 54C13.6406 54 2 42.3594 2 28C2 13.6406 13.6406 2 28 2C42.3594 2 54 13.6406 54 28ZM4 28C4 41.2548 14.7452 52 28 52C41.2548 52 52 41.2548 52 28C52 14.7452 41.2548 4 28 4C14.7452 4 4 14.7452 4 28Z" fill="white"/>
</g>
</g>
<g id="Group">
<path id="Path_3" d="M32.269 15.5H21.2675L20.3657 20.586L30.2852 20.604C35.1729 20.604 36.6156 22.3715 36.5796 25.3113C36.5617 26.8264 35.9123 29.3692 35.6237 30.1989C34.8663 32.3993 33.3333 34.9242 27.5258 34.9062H17.8769L16.957 40.0102H27.9225C31.7821 40.0102 33.4415 39.5594 35.1729 38.7476C39.0324 36.9621 41.341 33.1567 42.2608 28.179C43.6494 20.7663 41.936 15.5 32.269 15.5Z" fill="white"/>
<path id="Path_4" d="M16.5399 25.2024C13.6543 25.2024 13.2395 27.0782 12.9689 28.2145C12.6082 29.6934 12.5 30.3066 12.5 30.3066H23.7542C26.6398 30.3066 27.0545 28.4308 27.3251 27.2947C27.6859 25.8158 27.7941 25.2024 27.7941 25.2024H16.5399Z" fill="white"/>
</g>
</g>
</g>
</svg>
