<svg width="56" height="56" viewBox="0 0 56 56" fill="none" xmlns="http://www.w3.org/2000/svg">
<g id="ic_coin_zec">
<g id="Group 20">
<path id="Path" d="M28 56C43.4639 56 56 43.4639 56 28C56 12.536 43.4639 0 28 0C12.536 0 0 12.536 0 28C0 43.4639 12.536 56 28 56Z" fill="#FAB915"/>
<mask id="mask0" style="mask-type:alpha" maskUnits="userSpaceOnUse" x="0" y="0" width="56" height="56">
<path id="Path_2" d="M28 56C43.4639 56 56 43.4639 56 28C56 12.536 43.4639 0 28 0C12.536 0 0 12.536 0 28C0 43.4639 12.536 56 28 56Z" fill="white"/>
</mask>
<g mask="url(#mask0)">
<path id="Path 2" fill-rule="evenodd" clip-rule="evenodd" d="M0 56V0H56L0 56Z" fill="#FFC940"/>
<path id="Oval" fill-rule="evenodd" clip-rule="evenodd" d="M54 28C54 42.3594 42.3594 54 28 54C13.6406 54 2 42.3594 2 28C2 13.6406 13.6406 2 28 2C42.3594 2 54 13.6406 54 28ZM4 28C4 41.2548 14.7452 52 28 52C41.2548 52 52 41.2548 52 28C52 14.7452 41.2548 4 28 4C14.7452 4 4 14.7452 4 28Z" fill="#4A3706"/>
</g>
</g>
<path id="Path_3" d="M26.515 33.923C30.0717 33.923 33.4166 33.923 36.8676 33.923C36.8676 35.6609 36.8676 37.3451 36.8676 39.0829C34.7965 39.0829 32.7268 39.0829 30.4964 39.0829C30.6021 40.5569 30.6558 41.9263 30.7615 43.4001C28.9571 43.4001 27.2573 43.4001 25.3992 43.4001C25.3992 42.0306 25.3992 40.6092 25.3992 39.1352C23.2222 39.1352 21.2048 39.1352 19.028 39.1352C19.028 37.451 18.8163 35.7654 19.1338 34.1857C19.2932 33.3429 20.2484 32.6061 20.8324 31.869C22.8498 29.5002 24.8672 27.1834 26.9383 24.8146C27.7354 23.9195 28.531 23.0767 29.434 22.0771C26.0355 22.0771 22.7976 22.0771 19.5062 22.0771C19.5062 20.3393 19.5062 18.6551 19.5062 16.9172C21.4178 16.9172 23.3816 16.9172 25.3992 16.9172C25.3992 15.4433 25.3992 14.074 25.3992 12.6001C27.1513 12.6001 28.7977 12.6001 30.5487 12.6001C30.5487 13.9695 30.5487 15.3375 30.5487 16.8114C32.6718 16.8114 34.7428 16.8114 36.9721 16.8114C36.9721 18.5492 37.1837 20.2335 36.8662 21.8132C36.7068 22.656 35.7515 23.3929 35.1141 24.1298C33.0964 26.4988 31.079 28.8153 29.008 31.1844C28.2111 32.1317 27.4152 32.9745 26.5125 33.9218L26.515 33.923Z" fill="#4A3706"/>
</g>
</svg>
