<svg width="56" height="56" viewBox="0 0 56 56" fill="none" xmlns="http://www.w3.org/2000/svg">
<g id="ic_coin_bch">
<g id="Group 2">
<g id="Group 20">
<path id="Path" d="M28 56C43.4639 56 56 43.4639 56 28C56 12.536 43.4639 0 28 0C12.536 0 0 12.536 0 28C0 43.4639 12.536 56 28 56Z" fill="#FAB915"/>
<mask id="mask0" style="mask-type:alpha" maskUnits="userSpaceOnUse" x="0" y="0" width="56" height="56">
<path id="Path_2" d="M28 56C43.4639 56 56 43.4639 56 28C56 12.536 43.4639 0 28 0C12.536 0 0 12.536 0 28C0 43.4639 12.536 56 28 56Z" fill="white"/>
</mask>
<g mask="url(#mask0)">
<path id="Path 2" fill-rule="evenodd" clip-rule="evenodd" d="M0 56V0H56L0 56Z" fill="#FFC940"/>
<path id="Oval" fill-rule="evenodd" clip-rule="evenodd" d="M54 28C54 42.3594 42.3594 54 28 54C13.6406 54 2 42.3594 2 28C2 13.6406 13.6406 2 28 2C42.3594 2 54 13.6406 54 28ZM4 28C4 41.2548 14.7452 52 28 52C41.2548 52 52 41.2548 52 28C52 14.7452 41.2548 4 28 4C14.7452 4 4 14.7452 4 28Z" fill="#DE9F00"/>
<path id="Shape" fill-rule="evenodd" clip-rule="evenodd" d="M34.0905 25.4951C35.1918 24.4793 35.6699 23.0963 34.9449 21.2313C33.9579 18.6737 31.4409 18.4264 28.5068 18.9766L27.4889 15.332L25.2704 15.954L26.2593 19.5018C25.6786 19.6647 25.0793 19.8456 24.4962 20.0229L23.4976 16.4502L21.2782 17.0691L22.2939 20.7176L22.2645 20.7263L22.2645 20.7263C21.7991 20.8645 21.3374 21.0016 20.8829 21.1305L20.8794 21.1177L17.8224 21.9716L18.489 24.3443C18.489 24.3443 20.1209 23.8511 20.1009 23.8913C20.9999 23.6367 21.4414 24.0802 21.6518 24.5053L22.8103 28.6595C22.8753 28.642 22.9555 28.6207 23.0489 28.6063C22.9728 28.6339 22.8957 28.6546 22.8147 28.6762L24.4423 34.4899C24.4806 34.7877 24.4423 35.2804 23.8121 35.4629C23.8497 35.4739 22.1982 35.9092 22.1982 35.9092L22.4985 38.6849L25.3894 37.8825C25.9246 37.732 26.4617 37.588 26.979 37.4493L28.012 41.1354L30.2283 40.5172L29.2088 36.8665C29.8176 36.7067 30.413 36.5471 30.988 36.3898L32.0005 40.0148L34.2227 39.395L33.1904 35.7236C36.8613 34.4562 39.2117 32.7862 38.5531 29.1912C38.0289 26.3021 36.3496 25.4175 34.0931 25.4953L34.0905 25.4951ZM25.2774 22.6154C25.4051 22.5797 25.5595 22.5322 25.7345 22.4783C27.2785 22.0028 30.4302 21.0321 31.0878 23.3812C31.7294 25.6805 28.4016 26.5512 26.879 26.9496C26.7423 26.9853 26.6201 27.0173 26.5167 27.0462L25.2774 22.6154ZM27.1437 29.2836L28.5042 34.1677C28.6264 34.1335 28.7703 34.0954 28.9313 34.0529C30.7537 33.5709 34.7584 32.5119 34.0482 29.9817C33.3175 27.3933 29.5175 28.5591 27.6726 29.1251C27.4707 29.187 27.2922 29.2418 27.1437 29.2836Z" fill="white"/>
</g>
</g>
<g id="Group">
<path id="Shape_2" d="M18.6273 14C13.9051 16.8454 10.7468 22.0227 10.7468 27.9378C10.7468 33.8527 13.9051 39.0302 18.6273 41.8756H6.10091L2 27.9378L6.10091 14H18.6273Z" fill="#DE9F00"/>
<path id="Shape Copy" d="M37 41.8755C41.7222 39.0301 44.8805 33.8527 44.8805 27.9377C44.8805 22.0228 41.7222 16.8453 37 13.9999L49.5264 13.9999L53.6273 27.9377L49.5264 41.8755H37Z" fill="#DE9F00"/>
</g>
<path id="Shape_3" fill-rule="evenodd" clip-rule="evenodd" d="M34.0905 25.4951C35.1918 24.4793 35.6699 23.0963 34.9449 21.2313C33.9579 18.6737 31.4409 18.4264 28.5068 18.9766L27.4889 15.332L25.2704 15.954L26.2593 19.5018C25.6786 19.6647 25.0793 19.8456 24.4962 20.0229L23.4976 16.4502L21.2782 17.0691L22.2939 20.7176L22.2645 20.7263L22.2645 20.7263C21.7991 20.8645 21.3374 21.0016 20.8829 21.1305L20.8794 21.1177L17.8224 21.9716L18.489 24.3443C18.489 24.3443 20.1209 23.8511 20.1009 23.8913C20.9999 23.6367 21.4414 24.0802 21.6518 24.5053L22.8103 28.6595C22.8753 28.642 22.9555 28.6207 23.0489 28.6063C22.9728 28.6339 22.8957 28.6546 22.8147 28.6762L24.4423 34.4899C24.4806 34.7877 24.4423 35.2804 23.8121 35.4629C23.8497 35.4739 22.1982 35.9092 22.1982 35.9092L22.4985 38.6849L25.3894 37.8825C25.9246 37.732 26.4617 37.588 26.979 37.4493L28.012 41.1354L30.2283 40.5172L29.2088 36.8665C29.8176 36.7067 30.413 36.5471 30.988 36.3898L32.0005 40.0148L34.2227 39.395L33.1904 35.7236C36.8613 34.4562 39.2117 32.7862 38.5531 29.1912C38.0289 26.3021 36.3496 25.4175 34.0931 25.4953L34.0905 25.4951ZM25.2774 22.6154C25.4051 22.5797 25.5595 22.5322 25.7345 22.4783C27.2785 22.0028 30.4302 21.0321 31.0878 23.3812C31.7294 25.6805 28.4016 26.5512 26.879 26.9496C26.7423 26.9853 26.6201 27.0173 26.5167 27.0462L25.2774 22.6154ZM27.1437 29.2836L28.5042 34.1677C28.6264 34.1335 28.7703 34.0954 28.9313 34.0529C30.7537 33.5709 34.7584 32.5119 34.0482 29.9817C33.3175 27.3933 29.5175 28.5591 27.6726 29.1251C27.4707 29.187 27.2922 29.2418 27.1437 29.2836Z" fill="white"/>
</g>
</g>
</svg>
