<svg width="56" height="56" viewBox="0 0 56 56" fill="none" xmlns="http://www.w3.org/2000/svg">
<g id="ic_coin_qwash">
<g id="Group 20">
<path id="Path" d="M28 56C43.4639 56 56 43.4639 56 28C56 12.536 43.4639 0 28 0C12.536 0 0 12.536 0 28C0 43.4639 12.536 56 28 56Z" fill="#1840B4"/>
<mask id="mask0" style="mask-type:alpha" maskUnits="userSpaceOnUse" x="0" y="0" width="56" height="56">
<path id="Path_2" d="M28 56C43.4639 56 56 43.4639 56 28C56 12.536 43.4639 0 28 0C12.536 0 0 12.536 0 28C0 43.4639 12.536 56 28 56Z" fill="white"/>
</mask>
<g mask="url(#mask0)">
<path id="Path 2" fill-rule="evenodd" clip-rule="evenodd" d="M0 56V0H56L0 56Z" fill="#2156CA"/>
<path id="Oval" fill-rule="evenodd" clip-rule="evenodd" d="M54 28C54 42.3594 42.3594 54 28 54C13.6406 54 2 42.3594 2 28C2 13.6406 13.6406 2 28 2C42.3594 2 54 13.6406 54 28ZM4 28C4 41.2548 14.7452 52 28 52C41.2548 52 52 41.2548 52 28C52 14.7452 41.2548 4 28 4C14.7452 4 4 14.7452 4 28Z" fill="white"/>
</g>
</g>
<path id="Shape" fill-rule="evenodd" clip-rule="evenodd" d="M30.4167 11.7195H25.3748C20.5019 11.7195 16.5516 15.6698 16.5516 20.5427V33.1472C16.5516 38.0201 20.5019 41.9703 25.3748 41.9703H30.4167C35.2896 41.9703 39.2399 38.0201 39.2399 33.1472V20.5427C39.2399 15.6698 35.2896 11.7195 30.4167 11.7195ZM19.0725 20.5427C19.0725 17.062 21.8942 14.2404 25.3748 14.2404H30.4167C33.8973 14.2404 36.719 17.062 36.719 20.5427V33.1472C36.719 36.6278 33.8973 39.4494 30.4167 39.4494H25.3748C21.8942 39.4494 19.0725 36.6278 19.0725 33.1472V20.5427Z" fill="white"/>
<path id="Path_3" d="M30.5743 37.1889C30.0821 36.6967 30.0821 35.8985 30.5743 35.4063C31.0666 34.9141 31.8647 34.9141 32.357 35.4063L39.0792 42.1287C39.5714 42.621 39.5714 43.4191 39.0792 43.9114C38.587 44.4036 37.789 44.4036 37.2968 43.9114L30.5743 37.1889Z" fill="white"/>
</g>
</svg>
