<svg width="56" height="56" viewBox="0 0 56 56" fill="none" xmlns="http://www.w3.org/2000/svg">
<g id="ic_coin_bch ">
<g id="Group 19">
<path id="Path" d="M28.0135 52.5128C41.5569 52.5128 52.5362 41.538 52.5362 27.9995C52.5362 14.4613 41.5569 3.48633 28.0135 3.48633C14.47 3.48633 3.49088 14.4613 3.49088 27.9995C3.49088 41.538 14.47 52.5128 28.0135 52.5128Z" fill="white"/>
<path id="Shape" fill-rule="evenodd" clip-rule="evenodd" d="M0 28C0 12.5436 12.5272 0 28.0107 0C43.4728 0 56 12.5436 56 28C56 43.4562 43.494 56 28.0107 56C12.5272 56 0 43.4562 0 28ZM6.44436 28C6.44436 39.9058 16.1003 49.5581 28.0107 49.5581C39.8998 49.5581 49.5556 39.9058 49.5556 28C49.5556 16.0941 39.921 6.44191 28.0107 6.44191C16.1003 6.44191 6.44436 16.0941 6.44436 28Z" fill="url(#paint0_linear)"/>
<path id="Shape_2" fill-rule="evenodd" clip-rule="evenodd" d="M24.2452 17.4549V14.5422H26.9887V17.4549H28.903V14.5422H31.6465V17.4714C34.7352 17.7003 37.1763 20.2839 37.1763 23.4292C37.1763 24.8194 36.7071 26.1074 35.9151 27.1322C37.5566 28.1978 38.644 30.0467 38.644 32.1458C38.644 35.4412 35.9641 38.1625 32.6674 38.1625H31.6465V40.9691H28.903V38.1625H26.9887V40.9691H24.2452V38.1625H21.2888H17.6944L19.3747 34.8035H21.2888V20.8141H19.3534L17.6732 17.4549H24.2452ZM24.6493 34.8035H32.6674C34.1138 34.8035 35.3047 33.6128 35.3047 32.167C35.3047 30.7213 34.1138 29.5308 32.6674 29.5308H24.6493V34.8035ZM24.6493 26.0866H31.2212C32.6674 26.0866 33.8585 24.8961 33.8585 23.4504C33.8585 22.0047 32.6674 20.8141 31.2212 20.8141H24.6493V26.0866Z" fill="#152569"/>
<path id="Shape_3" fill-rule="evenodd" clip-rule="evenodd" d="M8.93228 28.0006C8.93228 38.5244 17.4822 47.0712 28.0103 47.0712C38.5168 47.0712 47.0881 38.5244 47.0881 28.0006C47.0881 17.4766 38.538 8.92993 28.0103 8.92993C17.4822 8.92993 8.93228 17.4766 8.93228 28.0006ZM10.8465 28.0006C10.8465 18.5396 18.5457 10.8434 28.0103 10.8434C37.4747 10.8434 45.1738 18.5396 45.1738 28.0006C45.1738 37.4613 37.4747 45.1576 28.0103 45.1576C18.5457 45.1576 10.8465 37.4613 10.8465 28.0006Z" fill="#152569"/>
</g>
</g>
<defs>
<linearGradient id="paint0_linear" x1="-12.3769" y1="22.1045" x2="21.1694" y2="72.8914" gradientUnits="userSpaceOnUse">
<stop stop-color="#F4D933"/>
<stop offset="1" stop-color="#E3821F"/>
</linearGradient>
</defs>
</svg>
