<svg width="56" height="56" viewBox="0 0 56 56" fill="none" xmlns="http://www.w3.org/2000/svg">
<g id="Rus Ruble">
<g id="Group 20">
<path id="Path" d="M28 56C43.4639 56 56 43.4639 56 28C56 12.536 43.4639 0 28 0C12.536 0 0 12.536 0 28C0 43.4639 12.536 56 28 56Z" fill="#404CB8"/>
<mask id="mask0" style="mask-type:alpha" maskUnits="userSpaceOnUse" x="0" y="0" width="56" height="56">
<path id="Path_2" d="M28 56C43.4639 56 56 43.4639 56 28C56 12.536 43.4639 0 28 0C12.536 0 0 12.536 0 28C0 43.4639 12.536 56 28 56Z" fill="white"/>
</mask>
<g mask="url(#mask0)">
<path id="Path 2" fill-rule="evenodd" clip-rule="evenodd" d="M0 56V0H56L0 56Z" fill="#5260E2"/>
<path id="Oval" fill-rule="evenodd" clip-rule="evenodd" d="M54 28C54 42.3594 42.3594 54 28 54C13.6406 54 2 42.3594 2 28C2 13.6406 13.6406 2 28 2C42.3594 2 54 13.6406 54 28ZM4 28C4 41.2548 14.7452 52 28 52C41.2548 52 52 41.2548 52 28C52 14.7452 41.2548 4 28 4C14.7452 4 4 14.7452 4 28Z" fill="white"/>
</g>
</g>
<path id="Shape" fill-rule="evenodd" clip-rule="evenodd" d="M33.5156 29.1744C32.334 29.458 31.0633 29.6021 29.6971 29.6021V29.6064H25.5233V31.2793H35.2941V34.4087H25.5233V41.1907H21.8422V34.4087H20V31.2793H21.8422V29.5647H20V26.4353H21.8422V14.8091H29.885C31.2996 14.8091 32.5934 14.952 33.7586 15.2367C34.9237 15.5214 35.9164 15.9621 36.7374 16.559C37.5573 17.1559 38.1894 17.9121 38.6367 18.8321C39.0842 19.7521 39.3074 20.8568 39.3074 22.1495C39.3074 23.4653 39.0676 24.5952 38.5829 25.5404C38.0982 26.4858 37.4277 27.2552 36.5713 27.852C35.7118 28.4502 34.694 28.8908 33.5156 29.1744ZM29.5157 17.9484H25.5279V17.9495V26.4617H29.442C30.3356 26.4617 31.1622 26.3813 31.9195 26.2187C32.677 26.056 33.3311 25.8098 33.8774 25.4745C34.4225 25.1393 34.8478 24.7019 35.1446 24.1554C35.4414 23.6092 35.592 22.9387 35.592 22.1473C35.592 21.3515 35.436 20.6908 35.126 20.1577C34.8161 19.6279 34.3916 19.1938 33.8586 18.8585C33.3255 18.5232 32.6868 18.2902 31.9394 18.1528C31.192 18.0154 30.384 17.9484 29.5157 17.9484Z" fill="white"/>
</g>
</svg>
