<svg width="24" height="24" viewBox="0 0 24 24" fill="none" xmlns="http://www.w3.org/2000/svg">
<path d="M21.9116 13.207L22.655 13.3062C22.6896 13.0468 22.5865 12.7881 22.3829 12.6237C22.1794 12.4592 21.9048 12.4127 21.6585 12.501L21.9116 13.207ZM10.3919 1.99999L11.1419 1.99669C11.1409 1.77745 11.0441 1.5696 10.8768 1.42784C10.7096 1.28609 10.4886 1.22461 10.2722 1.2596L10.3919 1.99999ZM11.6702 5.18629L12.3643 5.47053C12.4761 5.19753 12.4175 4.88435 12.2145 4.67026L11.6702 5.18629ZM16.5798 11.577L17.184 11.1325C17.0227 10.9133 16.7553 10.7987 16.4853 10.833L16.5798 11.577ZM21.1682 13.1078C20.5644 17.6316 16.6891 21.1214 12 21.1214V22.6214C17.4508 22.6214 21.9531 18.5652 22.655 13.3062L21.1682 13.1078ZM12 21.1214C6.89137 21.1214 2.75 16.98 2.75 11.8714H1.25C1.25 17.8084 6.06294 22.6214 12 22.6214V21.1214ZM2.75 11.8714C2.75 7.26982 6.11075 3.45179 10.5116 2.74038L10.2722 1.2596C5.15642 2.08659 1.25 6.52207 1.25 11.8714H2.75ZM9.6419 2.00329C9.64819 3.43587 10.212 4.7383 11.126 5.70231L12.2145 4.67026C11.5527 3.97225 11.1464 3.03264 11.1419 1.99669L9.6419 2.00329ZM10.9762 4.90205C10.7168 5.53534 10.5742 6.22801 10.5742 6.95211H12.0742C12.0742 6.42631 12.1776 5.92652 12.3643 5.47053L10.9762 4.90205ZM10.5742 6.95211C10.5742 9.94122 12.9974 12.3644 15.9865 12.3644V10.8644C13.8258 10.8644 12.0742 9.11279 12.0742 6.95211H10.5742ZM15.9865 12.3644C16.2192 12.3644 16.4488 12.3496 16.6743 12.321L16.4853 10.833C16.3223 10.8537 16.1558 10.8644 15.9865 10.8644V12.3644ZM15.9757 12.0214C16.9597 13.3589 18.5472 14.2293 20.3378 14.2293V12.7293C19.0443 12.7293 17.8974 12.1024 17.184 11.1325L15.9757 12.0214ZM20.3378 14.2293C20.9776 14.2293 21.593 14.118 22.1647 13.913L21.6585 12.501C21.2469 12.6486 20.8026 12.7293 20.3378 12.7293V14.2293Z" fill="#26374C"/>
<circle cx="7.52441" cy="8.68555" r="0.75" fill="#26374C"/>
<circle cx="6.75" cy="13.75" r="0.75" fill="#26374C"/>
<circle cx="10.75" cy="13.75" r="0.75" fill="#26374C"/>
<circle cx="10.75" cy="17.75" r="0.75" fill="#26374C"/>
<circle cx="15.75" cy="16.75" r="0.75" fill="#26374C"/>
</svg>
