<svg width="24" height="24" viewBox="0 0 24 24" fill="none" xmlns="http://www.w3.org/2000/svg">
<path fill-rule="evenodd" clip-rule="evenodd" d="M12 2C17.5228 2 22 6.47716 22 12C22 17.5228 17.5228 22 12 22C6.47716 22 2 17.5228 2 12C2 6.47716 6.47716 2 12 2Z" stroke="#26374C" stroke-width="1.5" stroke-linecap="round" stroke-linejoin="round"/>
<path d="M12 22C9.79086 22 8 17.5228 8 12C8 6.47715 9.79086 2 12 2" stroke="#26374C" stroke-width="1.5"/>
<path d="M12 22C14.2091 22 16 17.5228 16 12C16 6.47715 14.2091 2 12 2" stroke="#26374C" stroke-width="1.5"/>
<line x1="2" y1="12" x2="22" y2="12" stroke="#26374C" stroke-width="1.5"/>
</svg>
